<?xml version="1.0" encoding="utf-8"?>
<!-- Generator: Adobe Illustrator 22.1.0, SVG Export Plug-In . SVG Version: 6.00 Build 0)  -->
<svg version="1.1" id="Layer_2" xmlns="http://www.w3.org/2000/svg" x="0px" y="0px"
	 viewBox="0 0 606 239" style="enable-background:new 0 0 606 239;" xml:space="preserve">
<style type="text/css">
	.st0{fill:#FFFFFF;}
</style>
<g id="Layer_2">
	
		<image style="overflow:visible;opacity:0.55;" width="620" height="167" transform="matrix(1 0 0 1 -4 40)">
	</image>
	<g>
		<g>
			<g>
				<g>
					<path class="st0" d="M54.3,52.8v64.4h-3L12.3,61.6v55.6H8.2V52.9h3.2L50,108.3V52.8H54.3z"/>
					<path class="st0" d="M95.8,118.2c-0.2,0-0.5,0-0.6,0h-0.6c-8.3-0.3-15.9-3.8-21.7-9.8c-6.2-6.3-9.5-14.7-9.5-23.7
						c0-8.9,3.3-17.3,9.5-23.6c5.8-6.1,13.4-9.6,21.7-9.8h1.2c8.2,0.3,15.8,3.8,21.7,9.8c6.1,6.3,9.4,14.7,9.4,23.6
						c0,9-3.3,17.4-9.4,23.7C111.6,114.5,103.9,117.9,95.8,118.2z M95.1,55.4c-15.2,0.4-27.5,13.4-27.5,29.3c0,16,12.2,29,27.5,29.4
						c15.2-0.4,27.5-13.4,27.5-29.4C122.7,68.8,110.4,55.8,95.1,55.4z"/>
					<path class="st0" d="M156.7,117.9c-11.5,0-20.8-9.4-20.8-20.8V52.9h4.1v44.2c0,9.3,7.5,16.7,16.6,16.7s16.6-7.4,16.6-16.7V52.9
						h4.1v44.2C177.5,108.6,168.2,117.9,156.7,117.9z"/>
					<path class="st0" d="M213,94l13.8,23.2h-4.9l-13.4-22.7c-6.2,0.5-12.4-0.7-15.8-1.6v24.2h-4.2V54.5L190,54
						c0.8-0.3,20.6-6.3,31.9,1.9c5,3.7,7.4,9.5,7.4,17.2s-2.5,13.5-7.4,17.2C219.2,92.1,216.2,93.3,213,94z M219.4,86.9
						c3.8-2.8,5.7-7.4,5.7-13.8s-1.9-10.9-5.7-13.8c-8-5.9-22.1-2.9-26.6-1.7v31C197.2,89.8,211.4,92.8,219.4,86.9z"/>
					<path class="st0" d="M241.2,52.7h4.2v64.6h-4.2V52.7z"/>
					<path class="st0" d="M287.7,112.9l-0.6,0.6c-3.3,2.8-7.6,4.5-12.3,4.6h-0.5c-4.8,0-9.2-1.6-12.7-4.4c-3.1-2.7-5.1-6.2-5.7-10.1
						l4.1-0.6c0.4,2.8,1.9,5.5,4.3,7.5c5.7,4.7,14.6,4.6,20.1-0.3c3.1-3.1,4.8-7.3,4.5-11.5c-0.2-4.1-2.1-7.7-5.4-10.1
						c-3.5-2.6-6.9-3.3-10.2-4.1c-3.9-0.9-8.1-1.8-11.8-5.6c-3.5-3.6-5.4-7.9-5.2-12.2c0.2-3.9,1.8-7.4,5-10.4
						c3.9-3.3,8.1-4.6,12.7-4.6c4.8,0,9.3,1.7,12.7,4.7c2.2,1.9,3.8,4.4,4.6,7l-4.2,0.6c-0.6-1.7-1.7-3.2-3.1-4.5
						c-5.4-4.8-14.1-4.9-19.6-0.3c-2.4,2.2-3.7,4.8-3.8,7.6c-0.2,3.1,1.3,6.2,4,9.1s6,3.6,9.6,4.5c3.6,0.8,7.6,1.7,11.8,4.9
						c4.2,3,6.8,7.9,7.2,13.1C293.5,103.8,291.5,109,287.7,112.9z"/>
					<path class="st0" d="M345.5,52.7h4.1v64.6h-4.1V85.8C342,87.2,335.6,89,326,89c-9.5,0-15.9-1.8-19.4-3.2v31.4h-4.2V52.7h4.2
						v28.6c2.2,1.1,8.5,3.7,19.4,3.7c7.3,0,12.6-1.2,15.7-2.2c1.7-0.6,2.9-1.1,3.8-1.5V52.7z"/>
					<path class="st0" d="M434,52.7h4.1v64.6H434V85.8c-3.5,1.4-9.9,3.2-19.5,3.2s-15.9-1.8-19.4-3.2v31.4H391V52.7h4.2v28.6
						c2.2,1.1,8.5,3.7,19.4,3.7c7.3,0,12.6-1.2,15.7-2.2c1.7-0.6,2.9-1.1,3.8-1.5V52.7z"/>
					<path class="st0" d="M469.9,117.9c-11.5,0-20.8-9.4-20.8-20.8V52.9h4.1v44.2c0,9.3,7.5,16.7,16.6,16.7s16.6-7.4,16.6-16.7V52.9
						h4.1v44.2C490.7,108.6,481.4,117.9,469.9,117.9z"/>
					<path class="st0" d="M547.8,52.8v64.4h-3l-38.9-55.6v55.6h-4.1V52.9h3.2l38.7,55.4V52.8H547.8z"/>
					<path class="st0" d="M597.8,56.8h-18.4v60.4h-4.1V56.8H557v-4.1h40.9V56.8z"/>
				</g>
				<g>
					<path class="st0" d="M135.8,128.6c2.6,0,4.5,0.1,4.5,1.3c0,1.2-2,4.1-3.1,4.1h-13.9l-5.5,11.6h8.4c2.7,0,4.5,0.1,4.5,1.3
						c0,1.2-2,4.1-3.2,4.1h-12.2l-13.9,29.5c-0.3,0.8-0.8,1.5-1.4,1.5c-0.2,0-0.5-0.1-0.7-0.4c-3.3-5.6-1.9-8.9,2.7-18.9l13.7-28.8
						h-3c-7.1,0-15.6,2.8-15.6,10.5c0,3.1,2.5,5.9,5.4,5.9c0.9,0,1.8-0.2,2.6-0.7l0.9,1.1c-2,2-4.4,2.9-6.7,2.9
						c-4.6,0-8.8-3.4-8.8-9.4c0-2,0.5-4.1,1.8-6.4c4.5-7.5,13.9-9.2,22.8-9.2H135.8z"/>
					<path class="st0" d="M140.7,160.3c-0.9,1.8-1.9,4.2,1.3,4.2c3.8,0,7.9-3.7,9.8-5.7l1.1,1c-3.9,5.1-10,10.1-16.4,10.1
						c-3.9,0-6.2-3.7-4.1-8.2l4.6-10.2c1.4-3.5-1.2-3.2-3.5-2.2l-0.7-1.3c2.3-1.3,5.8-3.5,9.1-3.5c2.1,0,3.8,0.8,3.8,3
						c0,1-0.3,2.4-1.1,4.1L140.7,160.3z M148.2,133.9c1.5,0,2.4,0.9,2.4,2.1c0,2.8-3.3,5.3-5.8,5.3c-1.5,0-2.4-0.8-2.4-2.1
						C142.4,136.6,145.4,133.9,148.2,133.9z"/>
					<path class="st0" d="M187.4,159.8c-3.9,5.1-10,10.1-16.4,10.1c-3.9,0-6.2-3.7-4.1-8.2l2.4-5.1c1.3-2.8,3-7.1-1-7.1
						c-3.3,0-6.2,2.6-7.7,5.8l-6.1,13c-0.3,0.7-0.8,1.5-1.4,1.5c-1.7,0-3.3-1.7-3.3-4.1c0-3.8,2.9-10,4.5-13.3l0.6-1.3
						c1.4-3.1-1.4-3-3.6-2l-0.7-1.3c2.3-1.3,5.8-3.5,9.1-3.5c2.1,0,3.8,0.8,3.8,3c0,0.5-0.1,1-0.2,1.7c2.6-2.6,5.7-4.6,9.6-4.6
						c9.5,0,5.7,8.7,3.3,13.8l-1,2.1c-0.9,1.8-1.9,4.2,1.3,4.2c3.8,0,7.9-3.7,9.8-5.7L187.4,159.8z"/>
					<path class="st0" d="M208.8,160.3c-0.9,1.8-1.9,4.2,1.3,4.2c3.8,0,9.1-5.2,11.1-7.2l1.1,1c-3.9,5.1-11.2,11.5-17.6,11.5
						c-3.2,0-5.3-2.4-4.8-5.7c-2.6,3-6.1,5.7-10.4,5.7c-3.8,0-6.7-2.6-6.7-7.1c0-7.2,8.8-18.3,17.6-18.3c3.4,0,5.3,1.7,6.2,3.9
						l7.1-15.3h1.2c2.9,0,4.5-1.4,7.1-4.9l1.4,0.5L208.8,160.3z M191.2,161.2c0,2,0.9,3.3,2.9,3.3c5.1,0,9.4-6.8,9.4-11.3
						c0-2.1-1-3.7-3.4-3.7C195.5,149.5,191.2,156.6,191.2,161.2z"/>
					<path class="st0" d="M256.1,162.2c-4.4,10-11.5,25.5-24.8,25.5c-7.3,0-11.4-5-11.4-9.8c0-3.6,2.2-7.2,7.1-8.5l0.6,1.4
						c-1.5,0.7-2.8,2.8-2.8,4.4c0,3.7,3.4,6.3,7.2,6.3c7.6,0,12.7-11.1,15.3-16.9c-2.6,2.8-5.7,5.3-9.8,5.3c-3.8,0-6.7-2.6-6.7-7.1
						c0-8.3,10-18.3,20.5-18.3c2.5,0,5.4,1,7.1,3.2c1.6-0.6,2.9-2.1,4.8-4.5l1.4,0.5L256.1,162.2z M251.9,152.5c0-1.8-1-3-2.8-3
						c-5.9,0-9.9,7.2-9.9,11.6c0,2,1.1,3.3,3.2,3.3C247.8,164.5,251.9,157,251.9,152.5z"/>
					<path class="st0" d="M270.1,151.2c1.2-3.2-1.4-3-3.6-2l-0.7-1.3c2.3-1.3,5.8-3.5,9.1-3.5c2.1,0,3.8,0.8,3.8,3
						c0,0.5-0.1,1-0.2,1.5c2.4-2.5,5.5-4.5,9-4.5c2.5,0,4.1,1.8,4.1,3.8c0,3.4-3.6,6.4-6.9,7.1l-0.6-1.4c1.3-0.6,2.2-1.5,2.2-2.6
						c0-1-0.7-1.8-2.5-1.8c-3.7,0-6.4,2.8-8,5.8l-6.1,13c-0.4,0.7-0.8,1.5-1.4,1.5c-1.7,0-3.3-1.7-3.3-4.1c0-3.8,2.9-9.9,4.5-13.3
						L270.1,151.2z"/>
					<path class="st0" d="M304.7,165.3c6.9,0,13.7-4.2,19-10.3l1.2,1c-5.5,9-14.4,13.9-24,13.9c-4.8,0-11.5-1.3-11.5-7.6
						c0-8.8,10-17.8,20.1-17.8c4.1,0,5.9,2.4,5.9,5.1c0,8-13.2,13-17.2,13C299.3,164.9,302.2,165.3,304.7,165.3z M308.2,151
						c0-0.9-0.5-1.5-1.7-1.5c-4.3,0-7.4,5.5-8.3,9.3C303.5,158.8,308.2,153.9,308.2,151z"/>
					<path class="st0" d="M344.3,160.3c-0.9,1.8-1.9,4.2,1.3,4.2c3.8,0,8.7-3.7,10.7-5.7l1.1,1c-3.9,5.1-10.8,10.1-17.2,10.1
						c-3.3,0-5.4-2.5-4.8-6c-2.7,3-5.9,6-10.3,6c-3.8,0-6.7-2.6-6.7-7.1c0-8.3,10-18.3,20.5-18.3c2.5,0,5.5,1,7.1,3.2
						c1.7-0.6,3-2.1,4.8-4.5l1.4,0.5L344.3,160.3z M337.5,158.5c1.5-3.3,1.7-4.8,1.7-6c0-1.8-1-3-2.8-3c-5.9,0-9.9,7.2-9.9,11.6
						c0,2,1.1,3.3,3.2,3.3C333,164.5,336.1,161.7,337.5,158.5z"/>
					<path class="st0" d="M355.7,159.3l4.6-9.9h-0.1c-1.9,0-3.2-0.1-3.2-0.9c0-0.9,1.8-3.7,2.6-3.7h2.8l1.5-3.2h1.2
						c2.9,0,4.5-1.4,7.1-4.9l1.3,0.5l-3.5,7.6h2.1c1.9,0,3.2,0.1,3.2,0.9c0,0.9-1.7,3.7-2.6,3.7H368l-5.2,10.8
						c-0.7,1.7-1.5,4.2,1.4,4.2c6.7,0,13.4-6.2,15.4-8.3l1.1,1.1c-3.8,5.2-12.6,12.6-20,12.6C356.5,169.9,352,167.4,355.7,159.3z"/>
					<path class="st0" d="M404,165.3c6.9,0,13.7-4.2,19-10.3l1.2,1c-5.5,9-14.4,13.9-24,13.9c-4.8,0-11.5-1.3-11.5-7.6
						c0-8.8,10-17.8,20.1-17.8c4.1,0,5.9,2.4,5.9,5.1c0,8-13.2,13-17.2,13C398.6,164.9,401.5,165.3,404,165.3z M407.5,151
						c0-0.9-0.5-1.5-1.7-1.5c-4.3,0-7.4,5.5-8.3,9.3C402.7,158.8,407.5,153.9,407.5,151z"/>
					<path class="st0" d="M443.6,160.3c-0.9,1.8-1.9,4.2,1.3,4.2c3.8,0,8.7-3.7,10.7-5.7l1.1,1c-3.9,5.1-10.8,10.1-17.2,10.1
						c-3.3,0-5.4-2.5-4.8-6c-2.7,3-5.9,6-10.3,6c-3.8,0-6.7-2.6-6.7-7.1c0-8.3,10-18.3,20.5-18.3c2.5,0,5.5,1,7.1,3.2
						c1.7-0.6,3-2.1,4.8-4.5l1.4,0.5L443.6,160.3z M436.8,158.5c1.5-3.3,1.7-4.8,1.7-6c0-1.8-1-3-2.8-3c-5.9,0-9.9,7.2-9.9,11.6
						c0,2,1.1,3.3,3.2,3.3C432.3,164.5,435.4,161.7,436.8,158.5z"/>
					<path class="st0" d="M455,159.3l4.6-9.9h-0.1c-1.9,0-3.2-0.1-3.2-0.9c0-0.9,1.8-3.7,2.6-3.7h2.8l1.5-3.2h1.2
						c2.9,0,4.5-1.4,7.1-4.9l1.3,0.5l-3.5,7.6h2.1c1.9,0,3.2,0.1,3.2,0.9c0,0.9-1.7,3.7-2.6,3.7h-4.8l-5.2,10.8
						c-0.7,1.7-1.5,4.2,1.4,4.2c6.7,0,13.4-6.2,15.4-8.3l1.1,1.1c-3.8,5.2-12.6,12.6-20,12.6C455.8,169.9,451.3,167.4,455,159.3z"/>
					<path class="st0" d="M511.9,157.7c-5.9,7.3-13.8,12.2-23.8,12.2c-7.9,0-12.7-3.2-12.7-7.9c0-7.3,10.6-12.1,17.6-15.4l3.6-1.7
						c0.4-0.3,0.8-0.4,1-0.4c0.3,0,0.3,0.1,0.3,0.3c0,0.7-1,2.2-1,4.5c0,5.7,3.4,6.7,3.4,11.5c0,0.5,0,1.8-0.9,3.4
						c5.1-1.9,9.7-5.6,11.4-7.3L511.9,157.7z M483.4,160.4c0,3.1,2.9,4.8,4.9,4.8c2.2,0,4.5-1.7,4.5-4.6c0-3.4-1.7-3.6-1.7-6.3
						c0-1,0.2-2,1-3.4C488.4,152.9,483.4,155.5,483.4,160.4z"/>
				</g>
			</g>
		</g>
	</g>
</g>
</svg>
