<!-- Generated by IcoMoon.io -->
<svg version="1.1" xmlns="http://www.w3.org/2000/svg" width="448" height="448" viewBox="0 0 448 448">
<title></title>
<g id="icomoon-ignore">
</g>
<path d="M128 0c4.25 0 8 3.75 8 8v368c0 3-1.75 5.75-4.25 7l-120 64c-1.25 0.75-2.5 1-3.75 1-4.25 0-8-3.75-8-8v-368c0-3 1.75-5.75 4.25-7l120-64c1.25-0.75 2.5-1 3.75-1zM440 0c4.25 0 8 3.75 8 8v368c0 3-1.75 5.75-4.25 7l-120 64c-1.25 0.75-2.5 1-3.75 1-4.25 0-8-3.75-8-8v-368c0-3 1.75-5.75 4.25-7l120-64c1.25-0.75 2.5-1 3.75-1zM160 0c1.25 0 2.5 0.25 3.5 0.75l128 64c2.75 1.5 4.5 4.25 4.5 7.25v368c0 4.25-3.75 8-8 8-1.25 0-2.5-0.25-3.5-0.75l-128-64c-2.75-1.5-4.5-4.25-4.5-7.25v-368c0-4.25 3.75-8 8-8z"></path>
</svg>
