<!-- Generated by IcoMoon.io -->
<svg version="1.1" xmlns="http://www.w3.org/2000/svg" width="384" height="448" viewBox="0 0 384 448">
<title></title>
<g id="icomoon-ignore">
</g>
<path d="M320 240v-32c0-8.75-7.25-16-16-16h-80v-80c0-8.75-7.25-16-16-16h-32c-8.75 0-16 7.25-16 16v80h-80c-8.75 0-16 7.25-16 16v32c0 8.75 7.25 16 16 16h80v80c0 8.75 7.25 16 16 16h32c8.75 0 16-7.25 16-16v-80h80c8.75 0 16-7.25 16-16zM384 104v240c0 39.75-32.25 72-72 72h-240c-39.75 0-72-32.25-72-72v-240c0-39.75 32.25-72 72-72h240c39.75 0 72 32.25 72 72z"></path>
</svg>
