<!-- Generated by IcoMoon.io -->
<svg version="1.1" xmlns="http://www.w3.org/2000/svg" width="475" height="448" viewBox="0 0 475 448">
<title></title>
<g id="icomoon-ignore">
</g>
<path d="M112 112c0-17.75-14.25-32-32-32s-32 14.25-32 32 14.25 32 32 32 32-14.25 32-32zM378.75 256c0 8.5-3.5 16.75-9.25 22.5l-122.75 123c-6 5.75-14.25 9.25-22.75 9.25s-16.75-3.5-22.5-9.25l-178.75-179c-12.75-12.5-22.75-36.75-22.75-54.5v-104c0-17.5 14.5-32 32-32h104c17.75 0 42 10 54.75 22.75l178.75 178.5c5.75 6 9.25 14.25 9.25 22.75zM474.75 256c0 8.5-3.5 16.75-9.25 22.5l-122.75 123c-6 5.75-14.25 9.25-22.75 9.25-13 0-19.5-6-28-14.75l117.5-117.5c5.75-5.75 9.25-14 9.25-22.5s-3.5-16.75-9.25-22.75l-178.75-178.5c-12.75-12.75-37-22.75-54.75-22.75h56c17.75 0 42 10 54.75 22.75l178.75 178.5c5.75 6 9.25 14.25 9.25 22.75z"></path>
</svg>
